<svg xmlns="http://www.w3.org/2000/svg" xmlns:xlink="http://www.w3.org/1999/xlink" width="64" zoomAndPan="magnify" viewBox="0 0 48 48" height="64" preserveAspectRatio="xMidYMid meet" version="1.0"><defs><clipPath id="c56092501a"><path d="M 0.488281 3.292969 L 47.507812 3.292969 L 47.507812 43.699219 L 0.488281 43.699219 Z M 0.488281 3.292969 " clip-rule="nonzero"/></clipPath><clipPath id="8f9f3faec3"><path d="M 0.488281 9 L 47.507812 9 L 47.507812 43.699219 L 0.488281 43.699219 Z M 0.488281 9 " clip-rule="nonzero"/></clipPath></defs><g clip-path="url(#c56092501a)"><path fill="#bddeff" d="M 4.332031 3.292969 L 43.667969 3.292969 C 44.175781 3.292969 44.664062 3.386719 45.132812 3.582031 C 45.601562 3.777344 46.015625 4.050781 46.375 4.410156 C 46.730469 4.769531 47.007812 5.183594 47.203125 5.652344 C 47.398438 6.121094 47.492188 6.605469 47.492188 7.113281 L 47.492188 39.878906 C 47.492188 40.382812 47.398438 40.871094 47.203125 41.339844 C 47.007812 41.808594 46.730469 42.222656 46.375 42.578125 C 46.015625 42.9375 45.601562 43.214844 45.132812 43.410156 C 44.664062 43.601562 44.175781 43.699219 43.667969 43.699219 L 4.332031 43.699219 C 3.824219 43.699219 3.335938 43.601562 2.867188 43.410156 C 2.398438 43.214844 1.984375 42.9375 1.625 42.578125 C 1.269531 42.222656 0.992188 41.808594 0.796875 41.339844 C 0.601562 40.871094 0.507812 40.382812 0.507812 39.878906 L 0.507812 7.113281 C 0.507812 6.605469 0.601562 6.121094 0.796875 5.652344 C 0.992188 5.183594 1.269531 4.769531 1.625 4.410156 C 1.984375 4.050781 2.398438 3.777344 2.867188 3.582031 C 3.335938 3.386719 3.824219 3.292969 4.332031 3.292969 Z M 4.332031 3.292969 " fill-opacity="1" fill-rule="nonzero"/></g><g clip-path="url(#8f9f3faec3)"><path fill="#e3f2ff" d="M 47.492188 9.84375 L 47.492188 39.878906 C 47.492188 40.382812 47.394531 40.871094 47.203125 41.339844 C 47.007812 41.808594 46.730469 42.21875 46.371094 42.578125 C 46.015625 42.9375 45.601562 43.214844 45.132812 43.40625 C 44.664062 43.601562 44.175781 43.699219 43.667969 43.699219 L 4.332031 43.699219 C 3.824219 43.699219 3.335938 43.601562 2.867188 43.40625 C 2.398438 43.214844 1.984375 42.9375 1.628906 42.578125 C 1.269531 42.21875 0.992188 41.808594 0.796875 41.339844 C 0.605469 40.871094 0.507812 40.382812 0.507812 39.878906 L 0.507812 9.84375 Z M 47.492188 9.84375 " fill-opacity="1" fill-rule="nonzero"/></g><path fill="#7aaeed" d="M 6.515625 6.566406 C 6.515625 6.785156 6.476562 6.992188 6.390625 7.195312 C 6.308594 7.394531 6.191406 7.574219 6.035156 7.726562 C 5.882812 7.878906 5.707031 8 5.503906 8.082031 C 5.304688 8.164062 5.09375 8.207031 4.878906 8.207031 C 4.660156 8.207031 4.449219 8.164062 4.25 8.082031 C 4.050781 8 3.871094 7.878906 3.71875 7.726562 C 3.566406 7.574219 3.445312 7.394531 3.363281 7.195312 C 3.28125 6.992188 3.238281 6.785156 3.238281 6.566406 C 3.238281 6.351562 3.28125 6.140625 3.363281 5.941406 C 3.445312 5.738281 3.566406 5.5625 3.71875 5.410156 C 3.871094 5.253906 4.050781 5.136719 4.25 5.054688 C 4.449219 4.972656 4.660156 4.929688 4.878906 4.929688 C 5.09375 4.929688 5.304688 4.972656 5.503906 5.054688 C 5.707031 5.136719 5.882812 5.253906 6.035156 5.410156 C 6.191406 5.5625 6.308594 5.738281 6.390625 5.941406 C 6.476562 6.140625 6.515625 6.351562 6.515625 6.566406 Z M 6.515625 6.566406 " fill-opacity="1" fill-rule="nonzero"/><path fill="#7aaeed" d="M 10.886719 6.566406 C 10.886719 6.785156 10.84375 6.992188 10.761719 7.195312 C 10.679688 7.394531 10.5625 7.574219 10.40625 7.726562 C 10.253906 7.878906 10.074219 8 9.875 8.082031 C 9.675781 8.164062 9.464844 8.207031 9.25 8.207031 C 9.03125 8.207031 8.820312 8.164062 8.621094 8.082031 C 8.421875 8 8.242188 7.878906 8.089844 7.726562 C 7.933594 7.574219 7.816406 7.394531 7.734375 7.195312 C 7.652344 6.992188 7.609375 6.785156 7.609375 6.566406 C 7.609375 6.351562 7.652344 6.140625 7.734375 5.941406 C 7.816406 5.738281 7.933594 5.5625 8.089844 5.410156 C 8.242188 5.253906 8.421875 5.136719 8.621094 5.054688 C 8.820312 4.972656 9.03125 4.929688 9.25 4.929688 C 9.464844 4.929688 9.675781 4.972656 9.875 5.054688 C 10.074219 5.136719 10.253906 5.253906 10.40625 5.410156 C 10.5625 5.5625 10.679688 5.738281 10.761719 5.941406 C 10.84375 6.140625 10.886719 6.351562 10.886719 6.566406 Z M 10.886719 6.566406 " fill-opacity="1" fill-rule="nonzero"/><path fill="#7aaeed" d="M 15.257812 6.566406 C 15.257812 6.785156 15.214844 6.992188 15.132812 7.195312 C 15.050781 7.394531 14.933594 7.574219 14.777344 7.726562 C 14.625 7.878906 14.445312 8 14.246094 8.082031 C 14.046875 8.164062 13.835938 8.207031 13.617188 8.207031 C 13.402344 8.207031 13.191406 8.164062 12.992188 8.082031 C 12.789062 8 12.613281 7.878906 12.460938 7.726562 C 12.304688 7.574219 12.1875 7.394531 12.105469 7.195312 C 12.023438 6.992188 11.980469 6.785156 11.980469 6.566406 C 11.980469 6.351562 12.023438 6.140625 12.105469 5.941406 C 12.1875 5.738281 12.304688 5.5625 12.460938 5.410156 C 12.613281 5.253906 12.789062 5.136719 12.992188 5.054688 C 13.191406 4.972656 13.402344 4.929688 13.617188 4.929688 C 13.835938 4.929688 14.046875 4.972656 14.246094 5.054688 C 14.445312 5.136719 14.625 5.253906 14.777344 5.410156 C 14.933594 5.5625 15.050781 5.738281 15.132812 5.941406 C 15.214844 6.140625 15.257812 6.351562 15.257812 6.566406 Z M 15.257812 6.566406 " fill-opacity="1" fill-rule="nonzero"/><path fill="#7aaeed" d="M 43.667969 6.023438 L 27.277344 6.023438 C 27.128906 6.023438 27 6.074219 26.890625 6.183594 C 26.785156 6.289062 26.730469 6.417969 26.730469 6.566406 C 26.730469 6.71875 26.785156 6.847656 26.890625 6.953125 C 27 7.058594 27.128906 7.113281 27.277344 7.113281 L 43.667969 7.113281 C 43.820312 7.113281 43.949219 7.058594 44.054688 6.953125 C 44.164062 6.847656 44.214844 6.71875 44.214844 6.566406 C 44.214844 6.417969 44.164062 6.289062 44.054688 6.183594 C 43.949219 6.074219 43.820312 6.023438 43.667969 6.023438 Z M 43.667969 6.023438 " fill-opacity="1" fill-rule="nonzero"/><path fill="#ffde76" d="M 36.953125 32.390625 L 29.851562 25.292969 C 29.742188 25.1875 29.613281 25.132812 29.464844 25.132812 C 29.3125 25.132812 29.183594 25.1875 29.078125 25.292969 L 22.519531 31.847656 C 22.414062 31.953125 22.359375 32.082031 22.359375 32.234375 C 22.359375 32.382812 22.414062 32.511719 22.519531 32.617188 L 29.625 39.71875 C 29.730469 39.824219 29.859375 39.878906 30.011719 39.878906 C 30.160156 39.878906 30.289062 39.824219 30.394531 39.71875 L 36.953125 33.164062 C 37.058594 33.058594 37.113281 32.929688 37.113281 32.777344 C 37.113281 32.628906 37.058594 32.5 36.953125 32.390625 Z M 36.953125 32.390625 " fill-opacity="1" fill-rule="nonzero"/><path fill="#ffc33e" d="M 32.425781 37.691406 L 30.398438 39.71875 C 30.289062 39.824219 30.160156 39.878906 30.011719 39.878906 C 29.859375 39.878906 29.730469 39.824219 29.621094 39.71875 L 22.519531 32.621094 C 22.414062 32.511719 22.359375 32.382812 22.359375 32.230469 C 22.359375 32.082031 22.414062 31.953125 22.519531 31.84375 L 24.160156 30.207031 C 24.265625 30.101562 24.394531 30.046875 24.546875 30.046875 C 24.699219 30.046875 24.828125 30.101562 24.933594 30.207031 Z M 32.425781 37.691406 " fill-opacity="1" fill-rule="nonzero"/><path fill="#ffc33e" d="M 32.425781 27.863281 L 30.671875 29.617188 C 30.5625 29.722656 30.433594 29.773438 30.285156 29.773438 C 30.132812 29.773438 30.003906 29.722656 29.894531 29.617188 C 29.789062 29.507812 29.734375 29.378906 29.734375 29.230469 C 29.734375 29.078125 29.789062 28.949219 29.894531 28.839844 L 31.648438 27.089844 Z M 32.425781 27.863281 " fill-opacity="1" fill-rule="nonzero"/><path fill="#ffc33e" d="M 34.609375 30.046875 L 32.855469 31.800781 C 32.75 31.90625 32.621094 31.960938 32.46875 31.960938 C 32.316406 31.960938 32.1875 31.90625 32.082031 31.800781 C 31.972656 31.695312 31.921875 31.566406 31.921875 31.414062 C 31.921875 31.261719 31.972656 31.132812 32.082031 31.027344 L 33.835938 29.273438 Z M 34.609375 30.046875 " fill-opacity="1" fill-rule="nonzero"/><path fill="#ffde76" d="M 25.480469 20.925781 L 18.375 13.828125 C 18.269531 13.71875 18.140625 13.667969 17.988281 13.667969 C 17.839844 13.667969 17.710938 13.71875 17.605469 13.828125 L 11.046875 20.378906 C 10.941406 20.484375 10.886719 20.613281 10.886719 20.765625 C 10.886719 20.917969 10.941406 21.042969 11.046875 21.152344 L 18.148438 28.25 C 18.257812 28.355469 18.386719 28.410156 18.535156 28.410156 C 18.6875 28.410156 18.816406 28.355469 18.921875 28.25 L 25.480469 21.699219 C 25.585938 21.589844 25.640625 21.460938 25.640625 21.3125 C 25.640625 21.160156 25.585938 21.03125 25.480469 20.925781 Z M 25.480469 20.925781 " fill-opacity="1" fill-rule="nonzero"/><path fill="#ffc33e" d="M 21.496094 16.941406 L 19.742188 18.695312 C 19.636719 18.800781 19.507812 18.855469 19.355469 18.855469 C 19.203125 18.855469 19.074219 18.800781 18.96875 18.695312 C 18.863281 18.589844 18.808594 18.460938 18.808594 18.308594 C 18.808594 18.15625 18.863281 18.027344 18.96875 17.921875 L 20.722656 16.167969 Z M 21.496094 16.941406 " fill-opacity="1" fill-rule="nonzero"/><path fill="#ffc33e" d="M 23.683594 19.128906 L 21.929688 20.878906 C 21.820312 20.984375 21.691406 21.039062 21.542969 21.039062 C 21.390625 21.039062 21.261719 20.984375 21.152344 20.878906 C 21.046875 20.773438 20.992188 20.644531 20.992188 20.492188 C 20.992188 20.339844 21.046875 20.210938 21.152344 20.105469 L 22.90625 18.351562 Z M 23.683594 19.128906 " fill-opacity="1" fill-rule="nonzero"/><path fill="#ffc33e" d="M 20.953125 26.226562 L 18.925781 28.25 C 18.816406 28.355469 18.6875 28.410156 18.535156 28.410156 C 18.386719 28.410156 18.257812 28.355469 18.148438 28.25 L 11.046875 21.152344 C 10.9375 21.046875 10.886719 20.917969 10.886719 20.765625 C 10.886719 20.613281 10.9375 20.484375 11.046875 20.378906 L 13.074219 18.351562 Z M 20.953125 26.226562 " fill-opacity="1" fill-rule="nonzero"/><path fill="#ff8080" d="M 35.5 15.277344 C 35.160156 14.9375 34.765625 14.675781 34.320312 14.488281 C 33.875 14.304688 33.410156 14.210938 32.929688 14.210938 C 32.445312 14.210938 31.984375 14.304688 31.539062 14.488281 C 31.089844 14.675781 30.699219 14.9375 30.355469 15.277344 L 12.6875 32.9375 C 12.609375 33.015625 12.558594 33.109375 12.535156 33.21875 L 11.445312 38.679688 C 11.410156 38.847656 11.449219 38.996094 11.558594 39.132812 C 11.667969 39.265625 11.808594 39.332031 11.980469 39.332031 C 12.015625 39.332031 12.050781 39.328125 12.085938 39.320312 L 17.550781 38.226562 C 17.660156 38.207031 17.75 38.15625 17.828125 38.078125 L 35.5 20.417969 C 35.84375 20.078125 36.105469 19.683594 36.289062 19.238281 C 36.472656 18.792969 36.566406 18.328125 36.566406 17.847656 C 36.566406 17.367188 36.472656 16.902344 36.289062 16.457031 C 36.105469 16.011719 35.84375 15.617188 35.5 15.277344 Z M 35.5 15.277344 " fill-opacity="1" fill-rule="nonzero"/><path fill="#e55757" d="M 18.21875 37.691406 L 17.832031 38.082031 C 17.753906 38.15625 17.660156 38.207031 17.554688 38.226562 L 12.089844 39.320312 C 12.054688 39.328125 12.015625 39.332031 11.980469 39.332031 C 11.828125 39.332031 11.699219 39.277344 11.59375 39.171875 C 11.457031 39.03125 11.40625 38.867188 11.445312 38.675781 L 12.539062 33.214844 C 12.558594 33.109375 12.609375 33.015625 12.683594 32.9375 L 13.074219 32.550781 Z M 18.21875 37.691406 " fill-opacity="1" fill-rule="nonzero"/><path fill="#e55757" d="M 36.566406 17.847656 C 36.570312 18.851562 36.214844 19.707031 35.5 20.414062 L 33.835938 22.085938 L 28.6875 16.941406 L 30.359375 15.277344 C 30.613281 15.023438 30.898438 14.8125 31.21875 14.640625 C 31.535156 14.472656 31.871094 14.351562 32.222656 14.28125 C 32.574219 14.214844 32.929688 14.195312 33.289062 14.230469 C 33.644531 14.265625 33.992188 14.351562 34.324219 14.492188 C 34.65625 14.628906 34.960938 14.8125 35.238281 15.039062 C 35.515625 15.265625 35.753906 15.53125 35.953125 15.828125 C 36.152344 16.128906 36.304688 16.449219 36.410156 16.792969 C 36.515625 17.136719 36.566406 17.488281 36.566406 17.847656 Z M 36.566406 17.847656 " fill-opacity="1" fill-rule="nonzero"/></svg>