<svg xmlns="http://www.w3.org/2000/svg" xmlns:xlink="http://www.w3.org/1999/xlink" width="64" zoomAndPan="magnify" viewBox="0 0 48 48" height="64" preserveAspectRatio="xMidYMid meet" version="1.0"><defs><clipPath id="5cf2db08f7"><path d="M 1.285156 1 L 46.707031 1 L 46.707031 47 L 1.285156 47 Z M 1.285156 1 " clip-rule="nonzero"/></clipPath></defs><path fill="#aed581" d="M 21.972656 15.984375 L 39.613281 15.984375 C 38.960938 13.664062 35.1875 11.800781 30.792969 11.800781 C 29.253906 11.792969 27.75 12.019531 26.285156 12.488281 C 24.621094 13.023438 23.292969 13.875 22.550781 14.855469 C 22.488281 14.9375 22.429688 15.019531 22.371094 15.105469 C 22.355469 15.128906 22.339844 15.152344 22.324219 15.175781 C 22.285156 15.238281 22.246094 15.304688 22.210938 15.371094 L 22.179688 15.429688 C 22.140625 15.515625 22.097656 15.597656 22.066406 15.683594 C 22.058594 15.699219 22.054688 15.71875 22.046875 15.738281 C 22.019531 15.804688 21.996094 15.875 21.976562 15.945312 C 21.976562 15.957031 21.972656 15.972656 21.972656 15.984375 Z M 21.972656 15.984375 " fill-opacity="1" fill-rule="nonzero"/><path fill="#aed581" d="M 20.902344 13.992188 C 20.984375 14.101562 21.058594 14.210938 21.132812 14.320312 C 21.132812 14.332031 21.148438 14.34375 21.15625 14.355469 C 21.164062 14.363281 21.171875 14.332031 21.179688 14.320312 C 21.25 14.210938 21.324219 14.101562 21.40625 13.992188 L 21.453125 13.933594 C 21.496094 13.878906 21.539062 13.824219 21.585938 13.769531 L 21.664062 13.679688 C 21.703125 13.636719 21.738281 13.59375 21.777344 13.550781 C 21.816406 13.511719 21.839844 13.488281 21.871094 13.457031 C 21.902344 13.425781 21.945312 13.375 21.984375 13.335938 L 22.085938 13.242188 L 22.203125 13.128906 L 22.3125 13.035156 L 22.4375 12.929688 L 22.550781 12.839844 L 22.679688 12.734375 C 22.71875 12.703125 22.757812 12.675781 22.800781 12.644531 C 22.839844 12.617188 22.890625 12.578125 22.9375 12.546875 L 23.0625 12.460938 L 23.203125 12.363281 L 23.335938 12.28125 L 23.484375 12.1875 L 23.621094 12.109375 C 23.671875 12.078125 23.726562 12.046875 23.777344 12.019531 L 23.921875 11.941406 L 24.078125 11.855469 L 24.226562 11.78125 L 24.394531 11.703125 L 24.550781 11.628906 L 24.71875 11.554688 L 24.878906 11.484375 L 25.058594 11.414062 L 25.222656 11.351562 L 25.402344 11.285156 L 25.582031 11.222656 L 25.683594 11.183594 L 34.082031 2.796875 C 32.351562 2.226562 28.777344 3.582031 25.425781 6.929688 C 23.828125 8.519531 22.542969 10.324219 21.8125 12 C 21.6875 12.285156 21.464844 12.429688 21.152344 12.429688 C 20.839844 12.429688 20.621094 12.285156 20.496094 12 C 19.765625 10.324219 18.480469 8.519531 16.882812 6.929688 C 13.53125 3.582031 9.957031 2.226562 8.226562 2.796875 L 16.636719 11.183594 L 16.738281 11.21875 L 16.902344 11.277344 L 17.082031 11.347656 L 17.238281 11.410156 L 17.417969 11.484375 L 17.574219 11.550781 L 17.753906 11.628906 L 17.902344 11.699219 L 18.070312 11.78125 L 18.214844 11.855469 L 18.382812 11.941406 C 18.425781 11.964844 18.472656 11.992188 18.519531 12.019531 C 18.5625 12.046875 18.625 12.078125 18.679688 12.109375 L 18.8125 12.1875 C 18.863281 12.21875 18.917969 12.253906 18.96875 12.285156 C 19.015625 12.316406 19.054688 12.335938 19.09375 12.363281 C 19.136719 12.394531 19.195312 12.429688 19.246094 12.464844 L 19.363281 12.546875 L 19.511719 12.652344 L 19.625 12.738281 L 19.761719 12.847656 L 19.871094 12.933594 C 19.917969 12.96875 19.960938 13.011719 20.003906 13.050781 L 20.101562 13.136719 C 20.148438 13.175781 20.191406 13.21875 20.234375 13.257812 L 20.324219 13.34375 C 20.367188 13.386719 20.410156 13.429688 20.453125 13.472656 C 20.496094 13.515625 20.503906 13.527344 20.53125 13.554688 C 20.554688 13.578125 20.621094 13.652344 20.664062 13.703125 L 20.722656 13.769531 C 20.785156 13.84375 20.851562 13.917969 20.902344 13.992188 Z M 20.902344 13.992188 " fill-opacity="1" fill-rule="nonzero"/><path fill="#aed581" d="M 20.234375 15.683594 C 20.203125 15.597656 20.164062 15.515625 20.121094 15.429688 C 20.113281 15.410156 20.097656 15.390625 20.089844 15.371094 C 20.054688 15.304688 20.015625 15.238281 19.976562 15.175781 L 19.933594 15.105469 C 19.878906 15.019531 19.820312 14.9375 19.753906 14.859375 C 19.605469 14.667969 19.445312 14.488281 19.273438 14.320312 C 18.578125 13.679688 17.792969 13.179688 16.914062 12.824219 L 16.675781 12.726562 L 16.625 12.707031 C 16.429688 12.628906 16.226562 12.554688 16.015625 12.488281 C 14.550781 12.023438 13.050781 11.792969 11.511719 11.800781 C 7.117188 11.800781 3.34375 13.65625 2.691406 15.988281 L 20.335938 15.988281 L 20.324219 15.945312 C 20.304688 15.875 20.28125 15.808594 20.253906 15.738281 Z M 20.234375 15.683594 " fill-opacity="1" fill-rule="nonzero"/><path fill="#fff176" d="M 19.1875 23.0625 C 18.90625 27.796875 19.429688 32.445312 20.753906 37 L 23.273438 36.132812 C 23.460938 36.074219 23.640625 36.085938 23.8125 36.171875 C 23.988281 36.261719 24.105469 36.394531 24.171875 36.578125 C 24.234375 36.761719 24.222656 36.941406 24.140625 37.117188 C 24.058594 37.292969 23.925781 37.414062 23.742188 37.484375 L 21.183594 38.363281 C 21.402344 39.007812 21.597656 39.519531 21.742188 39.882812 C 23.320312 39.191406 24.960938 38.695312 26.65625 38.394531 C 25.402344 36.007812 24.433594 33.511719 23.742188 30.910156 L 22.105469 31.445312 C 21.917969 31.507812 21.734375 31.496094 21.558594 31.40625 C 21.378906 31.316406 21.261719 31.179688 21.195312 30.992188 C 21.132812 30.804688 21.148438 30.625 21.234375 30.445312 C 21.324219 30.269531 21.460938 30.152344 21.648438 30.089844 L 23.398438 29.503906 C 22.472656 25.519531 22.167969 21.488281 22.484375 17.410156 L 19.949219 17.410156 C 19.664062 18.773438 19.453125 20.148438 19.3125 21.535156 L 20.265625 21.265625 C 20.453125 21.210938 20.636719 21.234375 20.808594 21.328125 C 20.984375 21.425781 21.097656 21.566406 21.152344 21.757812 C 21.203125 21.949219 21.183594 22.128906 21.085938 22.300781 C 20.992188 22.472656 20.847656 22.585938 20.65625 22.640625 Z M 19.1875 23.0625 " fill-opacity="1" fill-rule="nonzero"/><path fill="#388e3c" d="M 15.371094 45.546875 L 44.074219 45.546875 C 41.617188 43.492188 36.082031 39.554688 29.722656 39.554688 C 23.363281 39.554688 17.832031 43.492188 15.371094 45.546875 Z M 15.371094 45.546875 " fill-opacity="1" fill-rule="nonzero"/><g clip-path="url(#5cf2db08f7)"><path fill="#000000" d="M 1.164062 16.699219 C 1.164062 16.898438 1.234375 17.066406 1.375 17.207031 C 1.515625 17.34375 1.683594 17.414062 1.882812 17.414062 L 18.484375 17.414062 C 16.152344 28.878906 19.402344 37.996094 20.4375 40.484375 C 17.683594 41.863281 15.203125 43.621094 12.996094 45.761719 C 12.773438 45.988281 12.726562 46.25 12.847656 46.539062 C 12.96875 46.832031 13.191406 46.976562 13.507812 46.976562 L 45.9375 46.976562 C 46.253906 46.976562 46.472656 46.832031 46.597656 46.539062 C 46.71875 46.25 46.671875 45.988281 46.449219 45.761719 C 46.144531 45.453125 38.875 38.125 29.722656 38.125 C 29.203125 38.125 28.691406 38.148438 28.1875 38.191406 C 27.617188 37.183594 26.066406 34.1875 24.960938 29.820312 C 24.957031 29.792969 24.949219 29.769531 24.941406 29.742188 C 24.941406 29.742188 24.941406 29.742188 24.941406 29.734375 C 23.929688 25.683594 23.589844 21.578125 23.914062 17.414062 L 40.429688 17.414062 C 40.628906 17.414062 40.796875 17.34375 40.9375 17.207031 C 41.074219 17.066406 41.144531 16.898438 41.144531 16.699219 C 41.144531 13.152344 36.597656 10.371094 30.792969 10.371094 C 29.96875 10.371094 29.148438 10.429688 28.335938 10.550781 L 35.722656 3.171875 C 35.863281 3.03125 35.933594 2.863281 35.933594 2.667969 C 35.933594 2.46875 35.863281 2.300781 35.722656 2.160156 C 33.601562 0.0507812 28.632812 1.699219 24.40625 5.914062 C 23.132812 7.171875 22.050781 8.574219 21.15625 10.125 C 20.257812 8.578125 19.171875 7.175781 17.894531 5.917969 C 13.671875 1.699219 8.699219 0.0507812 6.578125 2.164062 C 6.4375 2.304688 6.367188 2.476562 6.367188 2.675781 C 6.367188 2.871094 6.4375 3.039062 6.578125 3.179688 L 13.976562 10.550781 C 13.160156 10.429688 12.34375 10.371094 11.519531 10.371094 C 5.714844 10.371094 1.164062 13.152344 1.164062 16.699219 Z M 20.339844 15.984375 L 2.699219 15.984375 C 3.351562 13.664062 7.125 11.800781 11.519531 11.800781 C 13.058594 11.792969 14.558594 12.019531 16.023438 12.488281 C 16.234375 12.554688 16.433594 12.628906 16.628906 12.703125 L 16.683594 12.722656 L 16.921875 12.824219 C 17.800781 13.179688 18.585938 13.679688 19.28125 14.320312 C 19.453125 14.488281 19.613281 14.664062 19.761719 14.855469 C 19.820312 14.9375 19.882812 15.019531 19.941406 15.101562 L 19.984375 15.171875 C 20.023438 15.238281 20.0625 15.304688 20.097656 15.371094 C 20.105469 15.390625 20.121094 15.410156 20.128906 15.429688 C 20.171875 15.511719 20.207031 15.597656 20.242188 15.679688 L 20.261719 15.734375 C 20.289062 15.804688 20.3125 15.871094 20.332031 15.941406 Z M 16.640625 11.183594 L 8.226562 2.796875 C 9.957031 2.226562 13.53125 3.582031 16.882812 6.929688 C 18.480469 8.519531 19.765625 10.324219 20.496094 12 C 20.621094 12.285156 20.839844 12.429688 21.152344 12.429688 C 21.464844 12.429688 21.6875 12.285156 21.8125 12 C 22.542969 10.324219 23.828125 8.519531 25.425781 6.929688 C 28.777344 3.582031 32.351562 2.226562 34.082031 2.796875 L 25.671875 11.183594 L 25.570312 11.222656 L 25.390625 11.285156 L 25.210938 11.351562 L 25.046875 11.414062 L 24.867188 11.484375 L 24.703125 11.554688 L 24.535156 11.628906 L 24.378906 11.703125 L 24.214844 11.78125 L 24.066406 11.855469 L 23.90625 11.941406 L 23.765625 12.019531 C 23.710938 12.046875 23.660156 12.078125 23.609375 12.109375 L 23.472656 12.1875 L 23.324219 12.28125 L 23.191406 12.363281 L 23.050781 12.460938 L 22.921875 12.546875 C 22.878906 12.578125 22.832031 12.613281 22.789062 12.644531 C 22.742188 12.679688 22.707031 12.703125 22.667969 12.734375 L 22.535156 12.839844 L 22.421875 12.929688 L 22.296875 13.035156 L 22.191406 13.128906 L 22.074219 13.242188 L 21.972656 13.335938 C 21.933594 13.375 21.894531 13.417969 21.859375 13.457031 C 21.820312 13.496094 21.792969 13.519531 21.765625 13.550781 C 21.738281 13.582031 21.691406 13.636719 21.652344 13.679688 L 21.574219 13.769531 C 21.527344 13.824219 21.484375 13.878906 21.441406 13.933594 L 21.394531 13.992188 C 21.3125 14.101562 21.238281 14.210938 21.164062 14.320312 C 21.164062 14.332031 21.148438 14.339844 21.140625 14.355469 C 21.136719 14.367188 21.125 14.332031 21.121094 14.320312 C 21.046875 14.210938 20.972656 14.101562 20.890625 13.992188 C 20.832031 13.917969 20.773438 13.84375 20.710938 13.769531 L 20.648438 13.703125 C 20.605469 13.652344 20.5625 13.601562 20.515625 13.554688 C 20.46875 13.503906 20.464844 13.5 20.441406 13.472656 C 20.414062 13.445312 20.355469 13.386719 20.3125 13.34375 L 20.222656 13.257812 C 20.179688 13.21875 20.136719 13.175781 20.089844 13.136719 L 19.992188 13.050781 C 19.945312 13.011719 19.902344 12.96875 19.859375 12.933594 L 19.75 12.847656 L 19.613281 12.738281 L 19.496094 12.652344 L 19.351562 12.546875 L 19.230469 12.464844 C 19.183594 12.429688 19.132812 12.398438 19.082031 12.363281 C 19.03125 12.332031 18.996094 12.3125 18.953125 12.285156 C 18.910156 12.257812 18.851562 12.21875 18.800781 12.1875 L 18.664062 12.109375 C 18.613281 12.078125 18.558594 12.046875 18.507812 12.019531 C 18.453125 11.988281 18.414062 11.964844 18.367188 11.941406 L 18.203125 11.855469 L 18.058594 11.78125 L 17.886719 11.699219 L 17.738281 11.628906 L 17.558594 11.550781 L 17.40625 11.484375 L 17.226562 11.410156 L 17.066406 11.347656 L 16.886719 11.277344 L 16.726562 11.21875 Z M 44.074219 45.546875 L 15.371094 45.546875 C 17.832031 43.492188 23.378906 39.554688 29.722656 39.554688 C 36.066406 39.554688 41.617188 43.492188 44.074219 45.546875 Z M 20.753906 36.996094 C 19.429688 32.441406 18.90625 27.792969 19.1875 23.058594 L 20.652344 22.644531 C 20.84375 22.589844 20.988281 22.476562 21.082031 22.304688 C 21.179688 22.132812 21.199219 21.949219 21.148438 21.761719 C 21.09375 21.570312 20.980469 21.425781 20.804688 21.332031 C 20.632812 21.234375 20.453125 21.214844 20.261719 21.265625 L 19.308594 21.539062 C 19.449219 20.152344 19.660156 18.777344 19.945312 17.410156 L 22.480469 17.410156 C 22.164062 21.488281 22.46875 25.519531 23.394531 29.503906 L 21.644531 30.089844 C 21.457031 30.152344 21.320312 30.273438 21.230469 30.449219 C 21.144531 30.625 21.132812 30.808594 21.195312 30.996094 C 21.257812 31.183594 21.378906 31.320312 21.554688 31.410156 C 21.734375 31.496094 21.917969 31.507812 22.105469 31.445312 L 23.742188 30.910156 C 24.429688 33.515625 25.402344 36.011719 26.65625 38.398438 C 24.960938 38.699219 23.324219 39.191406 21.746094 39.878906 C 21.597656 39.519531 21.40625 39.003906 21.1875 38.359375 L 23.746094 37.480469 C 23.929688 37.410156 24.0625 37.289062 24.144531 37.113281 C 24.226562 36.9375 24.238281 36.757812 24.175781 36.574219 C 24.109375 36.390625 23.992188 36.257812 23.816406 36.167969 C 23.644531 36.082031 23.464844 36.070312 23.277344 36.128906 Z M 21.972656 15.984375 C 21.976562 15.972656 21.980469 15.957031 21.984375 15.945312 C 22.003906 15.875 22.027344 15.804688 22.054688 15.738281 C 22.054688 15.71875 22.066406 15.699219 22.074219 15.683594 C 22.105469 15.597656 22.144531 15.515625 22.1875 15.429688 L 22.21875 15.371094 C 22.253906 15.304688 22.292969 15.238281 22.332031 15.175781 C 22.347656 15.152344 22.359375 15.128906 22.378906 15.105469 C 22.429688 15.019531 22.488281 14.9375 22.554688 14.855469 C 23.292969 13.875 24.613281 13.039062 26.285156 12.488281 C 27.75 12.019531 29.253906 11.792969 30.792969 11.800781 C 35.1875 11.800781 38.960938 13.652344 39.613281 15.984375 Z M 21.972656 15.984375 " fill-opacity="1" fill-rule="nonzero"/></g></svg>