<svg xmlns="http://www.w3.org/2000/svg" xmlns:xlink="http://www.w3.org/1999/xlink" width="64" zoomAndPan="magnify" viewBox="0 0 48 48" height="64" preserveAspectRatio="xMidYMid meet" version="1.0"><defs><clipPath id="c518ff9724"><path d="M 2 6 L 46 6 L 46 42.289062 L 2 42.289062 Z M 2 6 " clip-rule="nonzero"/></clipPath></defs><g clip-path="url(#c518ff9724)"><path fill="#ffb3c8" d="M 42.335938 10.222656 C 38.0625 6.085938 29.597656 4.835938 24 11.246094 C 18.402344 4.835938 9.9375 6.085938 5.664062 10.222656 C 0.488281 15.234375 1.390625 25.566406 8.460938 32.894531 C 13.125 37.738281 18.332031 40.625 23.90625 42.273438 C 23.9375 42.273438 24.0625 42.273438 24.085938 42.273438 C 29.660156 40.625 34.859375 37.738281 39.53125 32.894531 C 46.609375 25.566406 47.511719 15.234375 42.335938 10.222656 Z M 42.335938 10.222656 " fill-opacity="1" fill-rule="nonzero"/></g><path fill="#ff5e7f" d="M 15.25 21.550781 C 15.25 21.773438 15.1875 21.988281 15.058594 22.195312 C 14.929688 22.402344 14.75 22.582031 14.511719 22.742188 C 14.273438 22.898438 14 23.019531 13.691406 23.105469 C 13.382812 23.191406 13.058594 23.234375 12.726562 23.234375 C 12.390625 23.234375 12.066406 23.191406 11.757812 23.105469 C 11.449219 23.019531 11.175781 22.898438 10.9375 22.742188 C 10.703125 22.582031 10.519531 22.402344 10.390625 22.195312 C 10.261719 21.988281 10.199219 21.773438 10.199219 21.550781 C 10.199219 21.328125 10.261719 21.113281 10.390625 20.90625 C 10.519531 20.699219 10.703125 20.519531 10.9375 20.359375 C 11.175781 20.203125 11.449219 20.082031 11.757812 19.996094 C 12.066406 19.910156 12.390625 19.867188 12.726562 19.867188 C 13.058594 19.867188 13.382812 19.910156 13.691406 19.996094 C 14 20.082031 14.273438 20.203125 14.511719 20.359375 C 14.75 20.519531 14.929688 20.699219 15.058594 20.90625 C 15.1875 21.113281 15.25 21.328125 15.25 21.550781 Z M 15.25 21.550781 " fill-opacity="1" fill-rule="nonzero"/><path fill="#ff5e7f" d="M 37.800781 21.636719 C 37.800781 21.859375 37.738281 22.074219 37.609375 22.28125 C 37.480469 22.488281 37.296875 22.667969 37.0625 22.828125 C 36.824219 22.984375 36.550781 23.105469 36.242188 23.191406 C 35.933594 23.277344 35.609375 23.320312 35.273438 23.320312 C 34.941406 23.320312 34.617188 23.277344 34.308594 23.191406 C 34 23.105469 33.726562 22.984375 33.488281 22.828125 C 33.25 22.667969 33.070312 22.488281 32.941406 22.28125 C 32.8125 22.074219 32.75 21.859375 32.75 21.636719 C 32.75 21.414062 32.8125 21.199219 32.941406 20.992188 C 33.070312 20.789062 33.25 20.605469 33.488281 20.449219 C 33.726562 20.289062 34 20.167969 34.308594 20.082031 C 34.617188 19.996094 34.941406 19.953125 35.273438 19.953125 C 35.609375 19.953125 35.933594 19.996094 36.242188 20.082031 C 36.550781 20.167969 36.824219 20.289062 37.0625 20.449219 C 37.296875 20.605469 37.480469 20.789062 37.609375 20.992188 C 37.738281 21.199219 37.800781 21.414062 37.800781 21.636719 Z M 37.800781 21.636719 " fill-opacity="1" fill-rule="nonzero"/><path fill="#ffffff" d="M 29.21875 26.175781 C 29.824219 26.347656 30.1875 26.996094 29.996094 27.597656 C 29.199219 30.15625 26.8125 32.019531 23.992188 32.019531 C 21.171875 32.019531 18.789062 30.164062 17.984375 27.597656 C 17.796875 26.988281 18.160156 26.347656 18.765625 26.175781 C 19.75 25.894531 21.464844 25.550781 23.984375 25.550781 C 26.5 25.550781 28.238281 25.894531 29.21875 26.175781 Z M 29.21875 26.175781 " fill-opacity="1" fill-rule="nonzero"/><path fill="#000000" d="M 19.058594 16.058594 C 18.445312 16.058594 17.941406 16.5625 17.941406 17.179688 L 17.941406 20.371094 C 17.941406 20.988281 18.445312 21.488281 19.058594 21.488281 C 19.671875 21.488281 20.175781 20.988281 20.175781 20.371094 L 20.175781 17.179688 C 20.175781 16.5625 19.671875 16.058594 19.058594 16.058594 Z M 19.058594 16.058594 " fill-opacity="1" fill-rule="nonzero"/><path fill="#000000" d="M 28.941406 16.058594 C 28.328125 16.058594 27.824219 16.5625 27.824219 17.179688 L 27.824219 20.371094 C 27.824219 20.988281 28.328125 21.488281 28.941406 21.488281 C 29.554688 21.488281 30.058594 20.988281 30.058594 20.371094 L 30.058594 17.179688 C 30.046875 16.5625 29.546875 16.058594 28.941406 16.058594 Z M 28.941406 16.058594 " fill-opacity="1" fill-rule="nonzero"/></svg>