<svg xmlns="http://www.w3.org/2000/svg" xmlns:xlink="http://www.w3.org/1999/xlink" width="64" zoomAndPan="magnify" viewBox="0 0 48 48" height="64" preserveAspectRatio="xMidYMid meet" version="1.0"><defs><clipPath id="1ee87f48cc"><path d="M 0.488281 0 L 47.507812 0 L 47.507812 47.019531 L 0.488281 47.019531 Z M 0.488281 0 " clip-rule="nonzero"/></clipPath></defs><path fill="#aa583a" d="M 24 0.785156 C 17.941406 0.785156 13.027344 4.292969 13.027344 8.621094 L 16.164062 8.621094 C 16.164062 6.023438 19.671875 3.917969 24 3.917969 C 28.328125 3.917969 31.835938 6.023438 31.835938 8.621094 L 34.972656 8.621094 C 34.972656 4.292969 30.058594 0.785156 24 0.785156 " fill-opacity="1" fill-rule="nonzero"/><path fill="#914a32" d="M 44.402344 46.238281 L 3.597656 46.238281 C 2.746094 46.238281 2.058594 45.546875 2.058594 44.695312 L 2.058594 13.296875 C 2.058594 12.445312 2.746094 11.753906 3.597656 11.753906 L 44.402344 11.753906 C 45.253906 11.753906 45.941406 12.445312 45.941406 13.296875 L 45.941406 44.695312 C 45.941406 45.546875 45.253906 46.238281 44.402344 46.238281 " fill-opacity="1" fill-rule="nonzero"/><path fill="#aa583a" d="M 1.273438 13.714844 L 1.273438 24.292969 L 24 28.996094 L 46.726562 24.292969 L 46.726562 13.714844 C 46.726562 12.632812 46.023438 11.753906 45.160156 11.753906 L 2.839844 11.753906 C 1.976562 11.753906 1.273438 12.632812 1.273438 13.714844 " fill-opacity="1" fill-rule="nonzero"/><path fill="#753d2b" d="M 27.132812 30.5625 L 20.867188 30.5625 L 20.867188 27.429688 L 27.132812 27.429688 L 27.132812 30.5625 " fill-opacity="1" fill-rule="nonzero"/><path fill="#aa583a" d="M 26.351562 33.699219 L 21.648438 33.699219 L 21.648438 30.5625 L 26.351562 30.5625 L 26.351562 33.699219 " fill-opacity="1" fill-rule="nonzero"/><g clip-path="url(#1ee87f48cc)"><path fill="#100f0d" d="M 45.160156 44.695312 C 45.160156 45.113281 44.820312 45.453125 44.402344 45.453125 L 3.597656 45.453125 C 3.179688 45.453125 2.839844 45.113281 2.839844 44.695312 L 2.839844 25.417969 L 20.082031 28.984375 L 20.082031 30.5625 C 20.082031 30.996094 20.433594 31.347656 20.867188 31.347656 L 20.867188 33.699219 C 20.867188 34.128906 21.214844 34.480469 21.648438 34.480469 L 26.351562 34.480469 C 26.785156 34.480469 27.132812 34.128906 27.132812 33.699219 L 27.132812 31.347656 C 27.566406 31.347656 27.917969 30.996094 27.917969 30.5625 L 27.917969 28.984375 L 45.160156 25.417969 Z M 22.433594 31.347656 L 25.566406 31.347656 L 25.566406 32.914062 L 22.433594 32.914062 Z M 21.648438 29.78125 L 21.648438 28.210938 L 26.351562 28.210938 L 26.351562 29.78125 Z M 2.058594 13.714844 C 2.058594 13.085938 2.421875 12.539062 2.839844 12.539062 L 45.160156 12.539062 C 45.578125 12.539062 45.941406 13.085938 45.941406 13.714844 L 45.941406 23.65625 L 27.917969 27.386719 C 27.894531 26.972656 27.554688 26.644531 27.132812 26.644531 L 20.867188 26.644531 C 20.445312 26.644531 20.105469 26.972656 20.082031 27.386719 L 2.058594 23.65625 Z M 13.8125 9.402344 L 15.378906 9.402344 L 15.378906 10.972656 L 13.8125 10.972656 Z M 24 1.566406 C 29.234375 1.566406 33.558594 4.316406 34.125 7.835938 L 32.535156 7.835938 C 31.953125 5.144531 28.414062 3.132812 24 3.132812 C 19.585938 3.132812 16.046875 5.144531 15.464844 7.835938 L 13.875 7.835938 C 14.441406 4.316406 18.765625 1.566406 24 1.566406 Z M 16.945312 8.621094 C 16.945312 6.496094 20.175781 4.703125 24 4.703125 C 27.824219 4.703125 31.054688 6.496094 31.054688 8.621094 L 31.054688 10.972656 L 16.945312 10.972656 Z M 32.621094 10.972656 L 32.621094 9.402344 L 34.1875 9.402344 L 34.1875 10.972656 Z M 45.160156 10.972656 L 35.753906 10.972656 L 35.753906 8.621094 C 35.753906 6.265625 34.496094 4.074219 32.214844 2.441406 C 30.007812 0.867188 27.09375 0 24 0 C 20.90625 0 17.992188 0.867188 15.785156 2.441406 C 13.503906 4.074219 12.246094 6.265625 12.246094 8.621094 L 12.246094 10.972656 L 2.839844 10.972656 C 1.542969 10.972656 0.488281 12.203125 0.488281 13.714844 L 0.488281 24.292969 C 0.488281 24.664062 0.75 24.984375 1.113281 25.0625 L 1.273438 25.09375 L 1.273438 44.695312 C 1.273438 45.976562 2.316406 47.019531 3.597656 47.019531 L 44.402344 47.019531 C 45.683594 47.019531 46.726562 45.976562 46.726562 44.695312 L 46.726562 25.09375 L 46.886719 25.0625 C 47.25 24.984375 47.511719 24.664062 47.511719 24.292969 L 47.511719 13.714844 C 47.511719 12.203125 46.457031 10.972656 45.160156 10.972656 " fill-opacity="1" fill-rule="nonzero"/></g></svg>